<?xml version="1.0" encoding="UTF-8"?>
<svg id="Laag_1" data-name="Laag 1" xmlns="http://www.w3.org/2000/svg" xmlns:xlink="http://www.w3.org/1999/xlink" viewBox="0 0 1771 1771">
  <defs>
    <style>
      .cls-1 {
        fill: url(#Naamloos_verloop_22);
      }

      .cls-1, .cls-2 {
        stroke-width: 0px;
      }

      .cls-2 {
        fill: url(#_ÂÁ_Ï_ÌÌ_È_ËÂÌÚ_757);
      }
    </style>
    <linearGradient id="Naamloos_verloop_22" data-name="Naamloos verloop 22" x1="447.9" y1="976.15" x2="1327.45" y2="976.15" gradientUnits="userSpaceOnUse">
      <stop offset="0" stop-color="#571811"/>
      <stop offset=".28" stop-color="#a66957"/>
      <stop offset=".75" stop-color="#b37060"/>
      <stop offset="1" stop-color="#6e3026"/>
    </linearGradient>
    <linearGradient id="_ÂÁ_Ï_ÌÌ_È_ËÂÌÚ_757" data-name="¡ÂÁ˚ÏˇÌÌ˚È „‡‰ËÂÌÚ 757" x1="885.5" y1="1187.29" x2="885.5" y2="513.74" gradientUnits="userSpaceOnUse">
      <stop offset="0" stop-color="#8f7463"/>
      <stop offset=".2" stop-color="#eed0b8"/>
      <stop offset=".25" stop-color="#eed0b8"/>
      <stop offset=".35" stop-color="#ecceb6"/>
      <stop offset=".38" stop-color="#e5c7b0"/>
      <stop offset=".41" stop-color="#d9bca5"/>
      <stop offset=".43" stop-color="#c8ab96"/>
      <stop offset=".44" stop-color="#b29682"/>
      <stop offset=".46" stop-color="#987c6b"/>
      <stop offset=".46" stop-color="#8f7463"/>
      <stop offset=".51" stop-color="#8f7463"/>
      <stop offset=".77" stop-color="#eed0b8"/>
      <stop offset=".84" stop-color="#eed0b8"/>
      <stop offset="1" stop-color="#8f7463"/>
    </linearGradient>
  </defs>
  <g>
    <path class="cls-1" d="M1261.48,652.82c7.99-9.32,18.33-15.33,30.99-17.99l34.99-7v-8.99h-191.9l-229.89,564.69-130.32-283.19c-24,42.84-46.63,78.7-69.09,109.46-.91,1.25-1.83,2.5-2.74,3.73l68.14,147.11c2.44.79,4.89,1.57,7.35,2.37,47.52,15.38,95.31,31.94,141.51,47.95l7.89,2.73c.15.05.3.11.45.16l200.69-488.07v524.72c0,10-2.26,18.86-6.75,26.61,68.96,19.57,119.72,28.69,159.54,28.69,7.28,0,14.64-.31,22.04-.94l-11.91-2.38c-12.66-2.66-23-8.65-30.99-17.99-8-9.32-12-20.65-12-33.99v-563.71c0-13.32,3.99-24.65,12-33.98ZM797.91,1217.35l53.78,116.12h27.97l30.44-74.04c-38.06-13.61-75.68-28.02-112.2-42.08ZM559.11,923.88c-8.91,0-17.74-.31-26.25-.93v176.47c.51.09,1.02.19,1.53.28,6.03,1.12,12.33,2.36,19.57,3.86,3.01-2.77,6.03-5.65,9.03-8.58,1.95-1.91,3.9-3.86,5.85-5.84v-165.38c-3.22.08-6.5.12-9.72.12ZM605.82,1295.48c-11.34-3.32-20.34-9.49-27-18.48-6.65-9-9.98-19.16-9.98-30.49v-102.46c-10.51,6.95-21.31,13.27-32.17,18.82-1.26.64-2.53,1.29-3.8,1.9v80.74c0,11.33-3.5,21.83-10.49,31.49-7,9.66-15.84,15.82-26.49,18.48l-47.98,13.99v9h204.9v-9l-46.98-13.99ZM691.15,717.38c-25.46,31.72-59.91,50.13-100.05,53.47l56.09,121.08c.58-.13,1.16-.25,1.75-.38,22.32-5.05,45.64-12.13,69.35-21.09,6.37-11.4,13.13-23.65,20.62-37.38.99-1.82,1.99-3.64,2.97-5.47l-50.73-110.23ZM568.49,771.19c-12.57-.53-24.54-2.19-35.62-4.93v134.21c.28.03.55.06.83.08,8.47.84,17.33,1.27,26.31,1.27,2.97,0,5.87-.03,8.62-.11.08,0,.14,0,.22,0v-130.5c-.12,0-.23,0-.35-.02ZM645.81,618.84h-164.01c-.14.6-.28,1.2-.42,1.81-1,4.49-1.76,9.09-2.27,13.69-.04.36-.08.73-.12,1.09l13.89,3.39c11.98,3.34,21.65,9.5,28.98,18.5,7.34,8.99,11,19.82,11,32.47v52.02c1,.44,2.01.86,3.04,1.26,9.9,3.87,20.96,6.19,32.93,6.9v-27.19l12.67,27.36c1.12-.03,2.23-.08,3.31-.14,48-2.72,77.26-29.33,93.35-51.17.92-1.25,1.83-2.51,2.7-3.8l-35.06-76.19Z"/>
    <path class="cls-2" d="M1456.23,1170.57c-4.45,0-6.24,2.68-6.24,8.92,0,9.81,6.24,16.05,6.24,24.08,0,63.23-64.86,96.37-128.78,106.83-15.4,2.53-30.74,3.74-45.11,3.74-45.21,0-101.54-11.77-164.66-29.81-59.2-16.92-124.39-39.35-192-62.76-48.92-16.94-99.12-34.39-149.25-50.63-63.05-20.43-125.98-38.94-186.1-52.11,41.46-30.99,77.16-70.09,109.17-113.98,25.87-35.45,49.34-74.01,71.51-113.94,6.46-11.62,12.8-23.35,19.06-35.15,17.84-8.03,33.89-15.16,50.84-24.97,114.14-58.86,218.48-142.68,271.99-207.79,28.54-34.78,41.91-70.45,41.91-99.88,0-38.35-24.97-62.42-60.64-62.42-155.52,0-246.66,190.79-347.94,376.35-7.32,13.42-14.7,26.81-22.15,40.1-24.23,9.29-48.63,16.93-73.31,22.51-26.96,6.11-54.24,9.75-81.94,10.38-2.94.08-5.89.11-8.84.11-9.35,0-18.4-.44-27.13-1.31-130.47-12.92-193.13-119.28-193.13-228.77,0-118.61,74.01-238.11,217.59-238.11,110.58,0,160.52,79.37,160.52,157.85,0,37.15-11.4,74.7-32.95,103.94-22.54,30.59-56.21,52.1-99.59,54.55-2.75.16-5.53.23-8.35.23s-5.46-.08-8.11-.23c-13.46-.75-25.43-3.37-35.97-7.49-43.62-17.05-62.93-59.77-62.93-101.96,0-5.17.29-10.34.87-15.46.54-4.92,1.35-9.8,2.42-14.59,9.51-42.73,39.28-78.75,85-78.75,16.94,0,18.73,17.84,32.99,17.84,3.57,0,5.36-1.79,5.36-5.36,0-7.13-8.03-17.83-32.11-17.83-57.44,0-96.97,38.74-110.18,84.09-.96,3.28-1.78,6.61-2.46,9.95-1.6,7.82-2.41,15.76-2.41,23.67,0,45.65,25.9,90.11,83.44,105.19,10.85,2.84,22.83,4.64,35.97,5.2,2.94.13,5.94.19,9,.19,3.22,0,6.39-.1,9.51-.29,43.29-2.7,76.98-23.75,99.88-53.9,22.98-30.28,35.09-69.75,35.09-109,0-82.04-51.72-162.31-166.76-162.31-165.87,0-251.48,122.17-251.48,243.46,0,111.56,74.5,222.32,228.8,233.59,8.5.63,17.26.94,26.25.94,3.26,0,6.5-.04,9.72-.13,29.06-.72,57-4.64,84.16-10.92,22.68-5.25,44.82-12.13,66.63-20.17-13.99,24.97-27.96,49.37-42.24,72.83-33.34,54.78-68.28,104.38-108.56,143.8-4.08,3.99-8.21,7.89-12.41,11.66-7.89-1.65-15.71-3.23-23.57-4.7-30.28-5.64-61.07-9.57-98.61-9.57-72.23,0-99.88,25.86-99.88,49.94,0,21.4,20.51,41.02,51.72,41.02,55.87,0,103.8-11.9,146.76-33.87,12.38-6.33,24.35-13.5,35.97-21.46,2.12-1.45,4.23-2.92,6.32-4.42,70.18,20.01,143.27,48.22,217.7,76.9,39.83,15.34,80.05,30.81,120.43,45.24,56.78,20.28,113.88,38.5,170.61,51.32,30.37,6.86,60.63,12.18,90.69,15.46,22.06,2.41,44.02,3.71,65.82,3.71,18.07,0,39.82-.9,62.62-3.71,8.05-.99,16.22-2.22,24.41-3.73,69.32-12.81,139.48-45.9,139.48-126.33,0-11.59-6.24-17.84-10.7-17.84ZM1087.93,465.19c39.24,0,61.53,22.29,61.53,57.96,0,27.64-12.48,61.53-40.13,96.31-53.51,65.99-157.85,148.04-271.1,206.89l-43.7,22.3c97.2-185.49,167.65-383.46,293.39-383.46ZM532.87,1131.2c-43.28,33.35-91.29,52.75-146.76,52.75-29.42,0-46.37-16.05-46.37-34.77,0-21.4,24.96-46.37,82.93-46.37,40.57,0,76.88,7.09,110.19,15.59,4.04,1.03,8.03,2.07,11.98,3.13-3.95,3.34-7.94,6.57-11.98,9.67Z"/>
  </g>
  <g>
    <path class="cls-1" d="M1261.48,652.82c7.99-9.32,18.33-15.33,30.99-17.99l34.99-7v-8.99h-191.9l-229.89,564.69-130.32-283.19c-24,42.84-46.63,78.7-69.09,109.46-.91,1.25-1.83,2.5-2.74,3.73l68.14,147.11c2.44.79,4.89,1.57,7.35,2.37,47.52,15.38,95.31,31.94,141.51,47.95l7.89,2.73c.15.05.3.11.45.16l200.69-488.07v524.72c0,10-2.26,18.86-6.75,26.61,68.96,19.57,119.72,28.69,159.54,28.69,7.28,0,14.64-.31,22.04-.94l-11.91-2.38c-12.66-2.66-23-8.65-30.99-17.99-8-9.32-12-20.65-12-33.99v-563.71c0-13.32,3.99-24.65,12-33.98ZM797.91,1217.35l53.78,116.12h27.97l30.44-74.04c-38.06-13.61-75.68-28.02-112.2-42.08ZM559.11,923.88c-8.91,0-17.74-.31-26.25-.93v176.47c.51.09,1.02.19,1.53.28,6.03,1.12,12.33,2.36,19.57,3.86,3.01-2.77,6.03-5.65,9.03-8.58,1.95-1.91,3.9-3.86,5.85-5.84v-165.38c-3.22.08-6.5.12-9.72.12ZM605.82,1295.48c-11.34-3.32-20.34-9.49-27-18.48-6.65-9-9.98-19.16-9.98-30.49v-102.46c-10.51,6.95-21.31,13.27-32.17,18.82-1.26.64-2.53,1.29-3.8,1.9v80.74c0,11.33-3.5,21.83-10.49,31.49-7,9.66-15.84,15.82-26.49,18.48l-47.98,13.99v9h204.9v-9l-46.98-13.99ZM691.15,717.38c-25.46,31.72-59.91,50.13-100.05,53.47l56.09,121.08c.58-.13,1.16-.25,1.75-.38,22.32-5.05,45.64-12.13,69.35-21.09,6.37-11.4,13.13-23.65,20.62-37.38.99-1.82,1.99-3.64,2.97-5.47l-50.73-110.23ZM568.49,771.19c-12.57-.53-24.54-2.19-35.62-4.93v134.21c.28.03.55.06.83.08,8.47.84,17.33,1.27,26.31,1.27,2.97,0,5.87-.03,8.62-.11.08,0,.14,0,.22,0v-130.5c-.12,0-.23,0-.35-.02ZM645.81,618.84h-164.01c-.14.6-.28,1.2-.42,1.81-1,4.49-1.76,9.09-2.27,13.69-.04.36-.08.73-.12,1.09l13.89,3.39c11.98,3.34,21.65,9.5,28.98,18.5,7.34,8.99,11,19.82,11,32.47v52.02c1,.44,2.01.86,3.04,1.26,9.9,3.87,20.96,6.19,32.93,6.9v-27.19l12.67,27.36c1.12-.03,2.23-.08,3.31-.14,48-2.72,77.26-29.33,93.35-51.17.92-1.25,1.83-2.51,2.7-3.8l-35.06-76.19Z"/>
    <path class="cls-2" d="M1456.23,1170.57c-4.45,0-6.24,2.68-6.24,8.92,0,9.81,6.24,16.05,6.24,24.08,0,63.23-64.86,96.37-128.78,106.83-15.4,2.53-30.74,3.74-45.11,3.74-45.21,0-101.54-11.77-164.66-29.81-59.2-16.92-124.39-39.35-192-62.76-48.92-16.94-99.12-34.39-149.25-50.63-63.05-20.43-125.98-38.94-186.1-52.11,41.46-30.99,77.16-70.09,109.17-113.98,25.87-35.45,49.34-74.01,71.51-113.94,6.46-11.62,12.8-23.35,19.06-35.15,17.84-8.03,33.89-15.16,50.84-24.97,114.14-58.86,218.48-142.68,271.99-207.79,28.54-34.78,41.91-70.45,41.91-99.88,0-38.35-24.97-62.42-60.64-62.42-155.52,0-246.66,190.79-347.94,376.35-7.32,13.42-14.7,26.81-22.15,40.1-24.23,9.29-48.63,16.93-73.31,22.51-26.96,6.11-54.24,9.75-81.94,10.38-2.94.08-5.89.11-8.84.11-9.35,0-18.4-.44-27.13-1.31-130.47-12.92-193.13-119.28-193.13-228.77,0-118.61,74.01-238.11,217.59-238.11,110.58,0,160.52,79.37,160.52,157.85,0,37.15-11.4,74.7-32.95,103.94-22.54,30.59-56.21,52.1-99.59,54.55-2.75.16-5.53.23-8.35.23s-5.46-.08-8.11-.23c-13.46-.75-25.43-3.37-35.97-7.49-43.62-17.05-62.93-59.77-62.93-101.96,0-5.17.29-10.34.87-15.46.54-4.92,1.35-9.8,2.42-14.59,9.51-42.73,39.28-78.75,85-78.75,16.94,0,18.73,17.84,32.99,17.84,3.57,0,5.36-1.79,5.36-5.36,0-7.13-8.03-17.83-32.11-17.83-57.44,0-96.97,38.74-110.18,84.09-.96,3.28-1.78,6.61-2.46,9.95-1.6,7.82-2.41,15.76-2.41,23.67,0,45.65,25.9,90.11,83.44,105.19,10.85,2.84,22.83,4.64,35.97,5.2,2.94.13,5.94.19,9,.19,3.22,0,6.39-.1,9.51-.29,43.29-2.7,76.98-23.75,99.88-53.9,22.98-30.28,35.09-69.75,35.09-109,0-82.04-51.72-162.31-166.76-162.31-165.87,0-251.48,122.17-251.48,243.46,0,111.56,74.5,222.32,228.8,233.59,8.5.63,17.26.94,26.25.94,3.26,0,6.5-.04,9.72-.13,29.06-.72,57-4.64,84.16-10.92,22.68-5.25,44.82-12.13,66.63-20.17-13.99,24.97-27.96,49.37-42.24,72.83-33.34,54.78-68.28,104.38-108.56,143.8-4.08,3.99-8.21,7.89-12.41,11.66-7.89-1.65-15.71-3.23-23.57-4.7-30.28-5.64-61.07-9.57-98.61-9.57-72.23,0-99.88,25.86-99.88,49.94,0,21.4,20.51,41.02,51.72,41.02,55.87,0,103.8-11.9,146.76-33.87,12.38-6.33,24.35-13.5,35.97-21.46,2.12-1.45,4.23-2.92,6.32-4.42,70.18,20.01,143.27,48.22,217.7,76.9,39.83,15.34,80.05,30.81,120.43,45.24,56.78,20.28,113.88,38.5,170.61,51.32,30.37,6.86,60.63,12.18,90.69,15.46,22.06,2.41,44.02,3.71,65.82,3.71,18.07,0,39.82-.9,62.62-3.71,8.05-.99,16.22-2.22,24.41-3.73,69.32-12.81,139.48-45.9,139.48-126.33,0-11.59-6.24-17.84-10.7-17.84ZM1087.93,465.19c39.24,0,61.53,22.29,61.53,57.96,0,27.64-12.48,61.53-40.13,96.31-53.51,65.99-157.85,148.04-271.1,206.89l-43.7,22.3c97.2-185.49,167.65-383.46,293.39-383.46ZM532.87,1131.2c-43.28,33.35-91.29,52.75-146.76,52.75-29.42,0-46.37-16.05-46.37-34.77,0-21.4,24.96-46.37,82.93-46.37,40.57,0,76.88,7.09,110.19,15.59,4.04,1.03,8.03,2.07,11.98,3.13-3.95,3.34-7.94,6.57-11.98,9.67Z"/>
  </g>
</svg>